Jump_normalized_Motion_pl06
version=1
nRows=25
nColumns=43
inDegrees=yes
endheader
time		pelvis_tilt		pelvis_list		pelvis_rotation		pelvis_tx		pelvis_ty		pelvis_tz		hip_flexion_r		hip_adduction_r		hip_rotation_r		knee_angle_r		ankle_angle_r		subtalar_angle_r		mtp_angle_r		hip_flexion_l		hip_adduction_l		hip_rotation_l		knee_angle_l		ankle_angle_l		subtalar_angle_l		mtp_angle_l		lumbar_extension		lumbar_bending		lumbar_rotation		neck_flexion		neck_lateral_bending		neck_rotation		arm_flex_r		arm_add_r		arm_rot_r		elbow_flex_r		pro_sup_r		wrist_flex_r		wrist_dev_r		hand_finger_flex_r		arm_flex_l		arm_add_l		arm_rot_l		elbow_flex_l		pro_sup_l		wrist_flex_l		wrist_dev_l		hand_finger_flex_l		
0.315000		3.059292		-21.842077		89.936275		0.010463		1.649889		1.870134		97.169168		-13.466518		7.778377		-146.621773		44.789410		8.244545		-15.579550		97.778345		-11.338941		6.831140		-147.626248		46.622417		-3.247973		-23.888684		-41.258002		-0.261926		3.040249		44.935332		1.534786		3.353164		55.491468		-34.786945		9.010115		83.481347		63.557239		-12.330986		-19.962162		49.060417		72.842372		-34.551827		37.232471		77.851655		70.342913		-48.160566		10.432196		72.658413		
0.317500		3.065922		-21.856322		89.918701		0.010618		1.649953		1.868917		96.962092		-13.447741		7.771307		-146.648282		44.866258		8.319297		-15.415053		97.558035		-11.367264		6.850739		-147.626074		46.608627		-3.349643		-23.839414		-41.213608		-0.281531		2.931063		44.728137		1.637051		3.469055		57.187629		-34.521754		10.043046		83.320137		62.975039		-12.890108		-19.976515		49.191199		74.244367		-34.391929		37.970570		77.800976		70.180733		-48.197003		10.617678		72.428233		
0.320000		3.058827		-22.121890		89.887811		0.010568		1.649567		1.867726		97.029518		-13.442904		7.807254		-146.643987		44.963887		8.310576		-15.343123		97.621356		-11.349765		6.820554		-147.651444		46.669813		-3.403305		-23.810263		-40.915580		-0.315732		2.967170		44.723731		1.712753		3.464309		58.647434		-34.585350		10.872843		83.407756		62.960476		-12.980512		-19.866716		49.293635		75.421314		-33.955166		38.356504		77.806872		70.178139		-48.137842		10.684414		72.325721		
0.322500		3.065179		-22.301332		89.868084		0.010619		1.649351		1.866505		97.001938		-13.434693		7.806834		-146.654042		45.046787		8.329766		-15.261561		97.595139		-11.356302		6.824188		-147.672540		46.673329		-3.493453		-23.781867		-40.685690		-0.337614		2.955862		44.604893		1.790847		3.484850		60.179014		-34.465361		11.709427		83.363667		62.818871		-13.193097		-19.752091		49.404153		76.704605		-33.587263		38.891139		77.719600		70.168539		-48.086767		10.802914		72.186770		
0.325000		3.062639		-22.474950		89.846747		0.010683		1.649195		1.865201		96.942339		-13.420099		7.798191		-146.670544		45.125638		8.338460		-15.180041		97.558210		-11.359415		6.809524		-147.687321		46.674086		-3.582360		-23.753214		-40.467152		-0.371800		2.935614		44.524513		1.878728		3.516299		61.696143		-34.339189		12.529514		83.332935		62.653309		-13.420107		-19.654853		49.541145		77.956378		-33.208523		39.364529		77.652713		70.138060		-48.072603		10.919928		72.038282		
0.327500		3.061473		-22.654271		89.820628		0.010748		1.649107		1.863883		96.886505		-13.402972		7.791363		-146.669545		45.198732		8.339965		-15.097567		97.510518		-11.367968		6.801197		-147.683421		46.665094		-3.676980		-23.726287		-40.244680		-0.402796		2.920183		44.426601		1.960281		3.547606		63.213669		-34.194562		13.346955		83.297386		62.469370		-13.665613		-19.565163		49.707432		79.207936		-32.831434		39.830096		77.586808		70.097509		-48.080927		11.041190		71.886280		
0.330000		3.063144		-22.609461		89.802806		0.010789		1.649685		1.862412		96.525964		-13.402892		7.747455		-146.632438		45.246502		8.330647		-14.769984		97.182038		-11.378450		6.765496		-147.647080		46.608389		-3.836083		-23.624758		-40.323659		-0.406534		2.739708		44.482329		2.119507		3.757777		65.022315		-33.866647		14.635669		83.146183		61.363309		-14.908673		-19.878615		50.730284		80.497578		-32.717433		40.313528		77.750933		69.554612		-48.573450		11.243881		71.467328		
0.332500		3.059472		-22.955160		89.768883		0.010897		1.649220		1.861098		96.671587		-13.364114		7.746005		-146.651801		45.297239		8.328133		-14.711890		97.334241		-11.391566		6.776573		-147.661980		46.630064		-3.882396		-23.609382		-39.882137		-0.441773		2.806593		44.319052		2.080990		3.715698		66.378501		-33.766133		15.263161		83.167973		61.481176		-14.967651		-19.721023		50.914962		81.666702		-32.203784		40.697524		77.592412		69.622576		-48.470185		11.281764		71.424196		
0.335000		3.059381		-23.222137		89.724200		0.011106		1.649031		1.859716		96.704748		-13.299340		7.715485		-146.648856		45.345704		8.318527		-14.647960		97.379548		-11.431193		6.800813		-147.659366		46.613142		-3.948204		-23.602015		-39.538697		-0.502258		2.841008		44.180267		2.164503		3.696598		67.769054		-33.591780		15.914689		83.141856		61.455265		-15.117048		-19.565727		51.088780		82.880686		-31.747101		41.112853		77.456530		69.656421		-48.424830		11.343075		71.357412		
0.337500		3.070689		-23.270010		89.658124		0.011330		1.649519		1.858183		96.440076		-13.224083		7.628373		-146.598928		45.356530		8.217529		-14.277682		97.135434		-11.507296		6.828071		-147.605109		46.595976		-4.025255		-23.578029		-39.502825		-0.548632		2.785031		44.188177		2.301169		3.835443		69.452455		-33.332155		17.076407		83.084812		60.391540		-16.474872		-19.769256		52.378681		84.212569		-31.536188		41.687224		77.524236		69.130510		-48.975849		11.411285		71.185449		
0.340000		3.063464		-23.621936		89.611102		0.011550		1.649172		1.856757		96.570273		-13.151633		7.611640		-146.607792		45.386844		8.234332		-14.230551		97.267109		-11.542368		6.858563		-147.606109		46.599522		-4.068093		-23.580012		-39.042923		-0.607758		2.842678		44.007646		2.308865		3.786386		70.763395		-33.149834		17.633552		83.056879		60.501142		-16.526376		-19.605066		52.503737		85.354874		-31.021047		42.030849		77.338019		69.197233		-48.878028		11.433668		71.167629		
0.342500		3.058466		-23.920085		89.537747		0.011837		1.649055		1.855268		96.620189		-13.056448		7.574944		-146.596073		45.419246		8.221573		-14.178618		97.314419		-11.608237		6.897740		-147.580508		46.594834		-4.108713		-23.587955		-38.660480		-0.688321		2.889987		43.865647		2.398923		3.773226		72.106596		-32.921039		18.231021		83.004856		60.464491		-16.666214		-19.448466		52.604848		86.537868		-30.569011		42.398864		77.190775		69.215453		-48.835936		11.468484		71.136181		
0.345000		3.056988		-24.186209		89.450420		0.012147		1.649098		1.853716		96.617958		-12.942363		7.527402		-146.560373		45.437588		8.186979		-14.115940		97.298378		-11.688969		6.950362		-147.530251		46.592881		-4.138054		-23.602156		-38.322201		-0.772007		2.927487		43.700100		2.485117		3.792890		73.476569		-32.671549		18.876432		82.946223		60.283240		-16.917905		-19.325469		52.717228		87.737698		-30.178149		42.811401		77.081557		69.163020		-48.852630		11.507680		71.104700		
0.347500		3.088415		-24.304609		89.349795		0.012638		1.649459		1.852057		96.422825		-12.772371		7.387912		-146.531551		45.396156		8.094511		-13.941613		97.129949		-11.836105		7.061772		-147.503579		46.580678		-4.127741		-23.654570		-38.158124		-0.830047		2.910298		43.580924		2.497348		3.934993		74.962192		-32.231701		19.733915		82.807081		59.399030		-17.864863		-19.424959		53.128076		89.064376		-29.978762		43.408805		77.026178		68.713264		-49.190716		11.491843		71.102837		
0.350000		3.068776		-24.689045		89.317684		0.012738		1.649596		1.850347		96.489426		-12.737987		7.369421		-146.448499		45.438775		8.084577		-13.918633		97.174299		-11.812120		7.065682		-147.382693		46.620630		-4.121438		-23.655496		-37.717494		-0.895690		2.932080		43.669979		2.647255		3.896119		76.131409		-31.946737		20.070262		82.795422		59.445147		-17.899760		-19.346739		53.155387		89.994521		-29.398119		43.360688		76.941298		68.694733		-49.200174		11.456793		71.068370		
0.352500		3.074775		-24.990672		89.233238		0.012994		1.649481		1.848715		96.542594		-12.617159		7.338139		-146.435809		45.454930		8.046269		-13.861415		97.182450		-11.902925		7.124756		-147.382340		46.645850		-4.134110		-23.670640		-37.307478		-0.952741		2.988612		43.348667		2.714734		3.916741		77.569677		-31.852197		20.930510		82.705035		59.339493		-18.136486		-19.213974		53.275812		91.216107		-29.070631		43.879986		76.832949		68.600776		-49.159503		11.466943		71.101351		
0.355000		3.089683		-25.285876		89.163086		0.013106		1.649489		1.846933		96.576834		-12.546760		7.290135		-146.429017		45.471130		8.013622		-13.820994		97.179187		-11.987989		7.173423		-147.370580		46.668126		-4.127443		-23.680110		-36.925744		-0.989393		2.991759		43.353794		2.818418		3.931417		78.860224		-31.491943		21.452739		82.565211		59.191520		-18.380529		-19.136339		53.321528		92.300738		-28.629987		44.086391		76.651481		68.483144		-49.170315		11.447095		71.106759		
0.357500		3.175295		-25.374437		89.097087		0.013692		1.650302		1.845057		96.240169		-12.334004		7.061278		-146.318096		45.395981		7.864831		-13.633500		96.892024		-12.091945		7.397013		-147.258251		46.681108		-4.007371		-23.733846		-36.821254		-0.972801		2.952616		43.183280		2.759774		4.195523		80.436068		-31.030405		22.564075		82.367639		57.971923		-19.804638		-19.494361		53.840451		93.600479		-28.656113		44.710073		76.780478		67.560894		-49.548259		11.164737		71.388313		
0.360000		3.177670		-25.769254		89.071747		0.013707		1.650433		1.843216		96.297113		-12.287708		7.053869		-146.218004		45.420866		7.848321		-13.592451		96.936209		-12.075623		7.391482		-147.177492		46.723580		-4.003910		-23.736729		-36.337173		-0.998803		2.994096		43.059376		2.878251		4.161802		81.684492		-30.881786		23.141720		82.304923		58.031271		-19.904929		-19.428569		54.012261		94.591958		-28.169355		44.841333		76.664439		67.484927		-49.563029		11.090465		71.419835		
0.362500		3.262937		-25.959005		89.020377		0.014036		1.650966		1.841253		96.109648		-12.142682		6.895553		-146.131129		45.351241		7.782413		-13.463986		96.774195		-12.169845		7.556066		-147.105326		46.705373		-3.932357		-23.753937		-36.088941		-0.958648		2.993673		42.926127		2.784265		4.319565		83.070519		-30.399325		23.908843		82.086521		57.396903		-20.877045		-19.656179		54.574950		95.807846		-28.008849		45.312095		76.586380		66.855262		-49.709567		10.825848		71.762661		
0.365000		3.250176		-26.351087		88.999410		0.014078		1.651362		1.839216		96.124573		-12.099157		6.881569		-146.006980		45.379459		7.766290		-13.450443		96.747821		-12.135354		7.557346		-146.963931		46.737275		-3.917324		-23.749667		-35.618649		-1.002569		2.997892		42.977617		2.958449		4.278690		84.165923		-30.085107		24.197400		81.990085		57.448325		-20.915085		-19.578531		54.599459		96.670705		-27.480105		45.218075		76.490349		66.829008		-49.720061		10.781619		71.747251		
0.367500		3.325832		-26.523487		88.952842		0.014324		1.651905		1.837182		95.919639		-11.955376		6.749547		-145.925811		45.302981		7.671075		-13.382912		96.555061		-12.217825		7.697135		-146.911931		46.737919		-3.831893		-23.729688		-35.386654		-0.950951		2.995773		42.738583		2.850133		4.446527		85.654125		-29.746919		25.144145		81.745200		56.967631		-21.725024		-19.730415		54.996037		97.927220		-27.382504		45.759780		76.434415		66.268942		-49.752721		10.650348		72.103236		
0.370000		3.323743		-26.910395		88.930701		0.014312		1.652316		1.835024		95.932992		-11.914552		6.738075		-145.799115		45.335187		7.647119		-13.371858		96.500406		-12.204885		7.705781		-146.779460		46.767933		-3.815841		-23.721579		-34.913496		-0.976321		2.998406		42.763314		3.045676		4.408912		86.765548		-29.449994		25.495602		81.604615		57.012566		-21.780112		-19.653601		55.029560		98.795547		-26.895208		45.696333		76.324914		66.226132		-49.763874		10.608982		72.101146		
0.372500		3.318614		-27.284158		88.905040		0.014436		1.652915		1.832930		95.881979		-11.824991		6.701276		-145.643021		45.319840		7.637459		-13.369394		96.435491		-12.172423		7.717297		-146.627955		46.779047		-3.789677		-23.714803		-34.456818		-1.020828		3.006607		42.697435		3.122769		4.412769		87.883734		-29.142158		25.862713		81.428104		57.033122		-21.863491		-19.574023		55.036823		99.748685		-26.449845		45.755553		76.209065		66.176125		-49.722548		10.607134		72.121374		
0.375000		3.453163		-27.316676		88.863288		0.014691		1.653941		1.830585		95.461677		-11.664350		6.492314		-145.518735		45.220043		7.496888		-13.362415		96.057455		-12.293617		7.921903		-146.546309		46.786439		-3.637287		-23.658872		-34.413906		-0.895563		2.975015		42.514633		2.931502		4.679916		89.474488		-28.698096		26.955698		81.087618		56.326595		-22.865919		-19.914481		55.375054		101.058427		-26.568160		46.356888		76.261565		65.359715		-49.748954		10.548750		72.593809		
